<?xml version="1.0" standalone="no"?>
<!DOCTYPE svg PUBLIC "-//W3C//DTD SVG 20010904//EN"
 "http://www.w3.org/TR/2001/REC-SVG-20010904/DTD/svg10.dtd">
<svg version="1.0" xmlns="http://www.w3.org/2000/svg"
 width="200.000000pt" height="200.000000pt" viewBox="0 0 200.000000 200.000000"
 preserveAspectRatio="xMidYMid meet">

<g transform="translate(0.000000,200.000000) scale(0.100000,-0.100000)"
fill="#000000" stroke="none">
<path d="M1080 1122 c-42 -13 -62 -60 -44 -106 9 -23 68 -40 94 -26 31 17 25
33 -10 25 -37 -8 -60 8 -60 40 0 33 23 48 61 40 23 -5 30 -4 27 6 -5 15 -46
28 -68 21z"/>
<path d="M1225 1122 c-33 -7 -55 -33 -55 -67 0 -76 107 -97 139 -27 24 51 -26
106 -84 94z m48 -43 c20 -27 10 -58 -19 -65 -30 -8 -54 11 -54 40 0 46 48 62
73 25z"/>
<path d="M247 1102 c-21 -23 -22 -42 -1 -42 20 0 44 24 44 44 0 22 -23 20 -43
-2z"/>
<path d="M450 1055 l0 -65 48 0 c74 0 111 53 71 103 -17 23 -28 27 -70 27
l-49 0 0 -65z m88 33 c29 -29 7 -78 -35 -78 -21 0 -23 5 -23 45 0 40 2 45 23
45 13 0 28 -5 35 -12z"/>
<path d="M610 1055 l0 -65 55 0 c30 0 55 5 55 10 0 6 -18 10 -40 10 -51 0 -57
27 -7 32 17 2 32 8 32 13 0 6 -15 11 -32 13 -47 5 -44 32 2 32 19 0 35 5 35
10 0 6 -22 10 -50 10 l-50 0 0 -65z"/>
<path d="M740 1083 c0 -59 10 -80 39 -93 35 -14 77 3 85 34 12 43 7 96 -9 96
-11 0 -15 -12 -15 -44 0 -86 -62 -89 -68 -2 -2 32 -7 46 -18 46 -10 0 -14 -11
-14 -37z"/>
<path d="M904 1098 c28 -39 29 -47 6 -75 -15 -19 -18 -29 -9 -32 7 -2 21 7 31
19 l19 23 15 -21 c8 -12 22 -22 30 -22 19 0 18 6 -7 40 l-22 28 22 29 c16 19
19 29 10 32 -7 2 -20 -6 -30 -17 -16 -21 -17 -21 -34 -2 -10 11 -25 20 -33 20
-12 0 -12 -3 2 -22z"/>
<path d="M1340 1055 c0 -50 3 -65 14 -65 8 0 16 10 18 23 2 17 11 23 36 25 43
4 41 22 -3 22 -28 0 -35 4 -35 20 0 17 7 20 40 20 22 0 40 5 40 10 0 6 -25 10
-55 10 l-55 0 0 -65z"/>
<path d="M1470 1055 c0 -51 3 -65 15 -65 9 0 15 9 15 25 0 21 5 25 30 25 17 0
30 5 30 10 0 6 -13 10 -30 10 -23 0 -30 4 -30 20 0 16 7 20 35 20 19 0 35 5
35 10 0 6 -22 10 -50 10 l-50 0 0 -65z"/>
<path d="M1594 1055 l1 -65 52 0 c29 0 53 5 53 10 0 6 -16 10 -35 10 -24 0
-35 5 -35 15 0 10 10 15 30 15 20 0 30 5 30 15 0 10 -10 15 -30 15 -20 0 -30
5 -30 15 0 10 11 15 35 15 19 0 35 5 35 10 0 6 -24 10 -53 10 l-53 0 0 -65z"/>
<path d="M1730 1055 l0 -65 50 0 c28 0 50 5 50 10 0 6 -16 10 -35 10 -24 0
-35 5 -35 15 0 10 10 15 30 15 20 0 30 5 30 15 0 10 -10 15 -30 15 -20 0 -30
5 -30 15 0 10 11 15 35 15 19 0 35 5 35 10 0 6 -22 10 -50 10 l-50 0 0 -65z"/>
<path d="M170 978 c0 -35 4 -68 8 -74 18 -27 55 -35 114 -25 18 3 38 36 38 62
0 26 3 29 25 23 34 -8 32 10 -4 47 -47 47 -61 39 -61 -31 l0 -60 -40 0 -40 0
0 60 c0 53 -2 60 -20 60 -18 0 -20 -7 -20 -62z"/>
<path d="M792 915 c0 -16 2 -22 5 -12 2 9 2 23 0 30 -3 6 -5 -1 -5 -18z"/>
<path d="M815 931 c-3 -5 -1 -12 5 -16 5 -3 10 1 10 9 0 18 -6 21 -15 7z"/>
<path d="M545 920 c3 -5 8 -10 11 -10 2 0 4 5 4 10 0 6 -5 10 -11 10 -5 0 -7
-4 -4 -10z"/>
<path d="M707 923 c-13 -13 -7 -33 11 -33 13 0 14 2 3 9 -7 5 -10 14 -7 20 8
12 3 15 -7 4z"/>
<path d="M451 914 c-1 -15 24 -36 32 -27 11 10 8 33 -4 33 -5 0 -7 -4 -4 -10
3 -5 2 -10 -4 -10 -5 0 -12 6 -14 13 -4 7 -6 8 -6 1z"/>
<path d="M500 907 c0 -10 8 -17 18 -17 9 0 13 4 7 8 -5 4 -13 11 -17 16 -5 5
-8 2 -8 -7z"/>
<path d="M601 908 c-1 -10 6 -18 14 -18 8 0 15 5 15 11 0 5 -4 8 -9 5 -5 -4
-12 0 -14 6 -3 8 -6 6 -6 -4z"/>
<path d="M651 904 c0 -11 3 -14 6 -6 3 7 2 16 -1 19 -3 4 -6 -2 -5 -13z"/>
<path d="M741 908 c-1 -10 5 -18 13 -18 20 0 29 17 15 26 -8 4 -9 3 -5 -4 4
-7 3 -12 -3 -12 -5 0 -12 6 -14 13 -3 7 -6 5 -6 -5z"/>
<path d="M840 911 c0 -10 19 -25 25 -20 1 2 -3 10 -11 17 -8 7 -14 8 -14 3z"/>
<path d="M891 904 c0 -11 3 -14 6 -6 3 7 2 16 -1 19 -3 4 -6 -2 -5 -13z"/>
<path d="M971 904 c0 -11 3 -14 6 -6 3 7 2 16 -1 19 -3 4 -6 -2 -5 -13z"/>
<path d="M1001 904 c0 -11 3 -14 6 -6 3 7 2 16 -1 19 -3 4 -6 -2 -5 -13z"/>
<path d="M1050 907 c0 -10 8 -17 18 -17 9 0 13 4 7 8 -5 4 -13 11 -17 16 -5 5
-8 2 -8 -7z"/>
<path d="M1121 904 c0 -11 3 -14 6 -6 3 7 2 16 -1 19 -3 4 -6 -2 -5 -13z"/>
<path d="M1151 904 c0 -11 3 -14 6 -6 3 7 2 16 -1 19 -3 4 -6 -2 -5 -13z"/>
<path d="M1236 905 c4 -8 8 -15 10 -15 2 0 4 7 4 15 0 8 -4 15 -10 15 -5 0 -7
-7 -4 -15z"/>
<path d="M1267 907 c-3 -8 0 -14 7 -14 7 0 13 6 13 14 0 7 -4 13 -8 13 -4 0
-9 -6 -12 -13z"/>
</g>
</svg>
